<svg width="152" height="48" viewBox="0 0 152 48" fill="none" xmlns="http://www.w3.org/2000/svg">
<path d="M62.8694 46.7569H64.1619C64.5374 46.7569 64.8398 46.7039 65.0739 46.5979C65.308 46.4919 65.4787 46.3233 65.5908 46.0872C65.703 45.8512 65.7615 45.5428 65.7664 45.1622C65.7713 44.9647 65.7762 44.7912 65.781 44.6419C65.781 44.4925 65.781 44.3432 65.781 44.1938C65.781 44.0445 65.7713 43.8759 65.7664 43.6831C65.7518 43.1435 65.6152 42.7437 65.3567 42.4835C65.0983 42.2282 64.6837 42.0981 64.1131 42.0981H62.8694V46.7521V46.7569ZM61.7185 47.8987C61.6502 47.8987 61.5965 47.8746 61.5478 47.8313C61.499 47.7831 61.4795 47.7301 61.4795 47.6627V41.2164C61.4795 41.1441 61.5039 41.0863 61.5478 41.0382C61.5965 40.99 61.6502 40.9707 61.7185 40.9707H64.1619C64.8349 40.9707 65.3957 41.0719 65.8298 41.279C66.2687 41.4814 66.6004 41.7897 66.8247 42.1896C67.0491 42.5943 67.1661 43.0857 67.171 43.6639C67.1856 43.9529 67.1905 44.2131 67.1905 44.4347C67.1905 44.6563 67.1856 44.9117 67.171 45.1959C67.1563 45.8078 67.0442 46.3185 66.8296 46.7184C66.615 47.1183 66.2931 47.417 65.8639 47.6097C65.4348 47.8024 64.8837 47.9036 64.2155 47.9036H61.7185V47.8987Z" fill="white"/>
<path d="M71.4194 46.8586C71.8534 46.8586 72.2095 46.7333 72.4826 46.478C72.7557 46.2227 72.902 45.8083 72.9264 45.235C72.941 44.9459 72.9459 44.6761 72.9459 44.4304C72.9459 44.1847 72.941 43.9149 72.9264 43.6355C72.9118 43.2549 72.8435 42.9417 72.7118 42.7008C72.5801 42.4599 72.4045 42.2865 72.1851 42.1757C71.9656 42.0649 71.712 42.0119 71.4243 42.0119C71.1365 42.0119 70.8926 42.0649 70.6732 42.1757C70.4537 42.2865 70.2782 42.4599 70.1465 42.7008C70.0148 42.9417 69.9465 43.2549 69.9319 43.6355C69.927 43.9197 69.9221 44.1847 69.9221 44.4304C69.9221 44.6761 69.9221 44.9459 69.9319 45.235C69.9514 45.8083 70.0977 46.2227 70.3708 46.478C70.6439 46.7333 70.9951 46.8586 71.4243 46.8586M71.4194 47.9956C70.8244 47.9956 70.3123 47.8993 69.8831 47.7017C69.4539 47.509 69.1223 47.2055 68.8833 46.8008C68.6443 46.3961 68.5127 45.8902 68.4932 45.2832C68.4883 44.9989 68.4834 44.7195 68.4834 44.4401C68.4834 44.1606 68.4834 43.8812 68.4932 43.5873C68.5127 42.9851 68.6492 42.484 68.8931 42.0841C69.1418 41.6794 69.4783 41.3759 69.9124 41.1736C70.3415 40.9712 70.8439 40.8652 71.4194 40.8652C71.9949 40.8652 72.4972 40.9664 72.9312 41.1736C73.3653 41.3759 73.7067 41.6794 73.9506 42.0841C74.1993 42.4888 74.331 42.9899 74.3505 43.5873C74.3651 43.8764 74.37 44.1606 74.37 44.4401C74.37 44.7195 74.3651 44.9989 74.3505 45.2832C74.331 45.8902 74.1993 46.3961 73.9603 46.8008C73.7213 47.2055 73.3848 47.509 72.9508 47.7017C72.5216 47.8944 72.0095 47.9956 71.4145 47.9956" fill="white"/>
<path d="M76.1403 47.8987C76.0672 47.8987 76.0087 47.8746 75.9599 47.8313C75.9111 47.7831 75.8916 47.7301 75.8916 47.6627V41.2164C75.8916 41.1441 75.916 41.0863 75.9599 41.0382C76.0087 40.99 76.0672 40.9707 76.1403 40.9707H76.9304C77.0231 40.9707 77.0913 40.9948 77.1401 41.043C77.1889 41.0912 77.2181 41.1297 77.2279 41.1586L79.1641 44.7238L81.1198 41.1586C81.1344 41.1297 81.1637 41.096 81.2076 41.043C81.2563 40.9948 81.3246 40.9707 81.4173 40.9707H82.1976C82.2708 40.9707 82.3293 40.9948 82.378 41.0382C82.4219 41.0863 82.4463 41.1441 82.4463 41.2164V47.6627C82.4463 47.7301 82.4219 47.7831 82.378 47.8313C82.3293 47.8795 82.2708 47.8987 82.1976 47.8987H81.3539C81.2807 47.8987 81.2222 47.8746 81.1783 47.8313C81.1344 47.7831 81.1149 47.7301 81.1149 47.6627V43.3748L79.7103 46.0198C79.6762 46.0776 79.6323 46.1306 79.5786 46.174C79.525 46.2173 79.4567 46.2366 79.3689 46.2366H78.9593C78.8666 46.2366 78.7935 46.2173 78.7447 46.174C78.6959 46.1306 78.652 46.0824 78.6179 46.0198L77.2133 43.3748V47.6627C77.2133 47.7301 77.1889 47.7831 77.145 47.8313C77.0962 47.8795 77.0426 47.8987 76.9743 47.8987H76.1306H76.1403Z" fill="white"/>
<path d="M84.3385 47.8991C84.2703 47.8991 84.2118 47.875 84.1679 47.8317C84.1191 47.7835 84.0996 47.7305 84.0996 47.6631V42.9898C84.0996 42.9223 84.124 42.8693 84.1679 42.8211C84.2166 42.773 84.2703 42.7537 84.3385 42.7537H85.1725C85.2457 42.7537 85.3042 42.7778 85.3481 42.8211C85.392 42.8693 85.4115 42.9223 85.4115 42.9898V47.6631C85.4115 47.7305 85.392 47.7835 85.3481 47.8317C85.3042 47.8799 85.2457 47.8991 85.1725 47.8991H84.3385ZM84.2995 41.8961C84.2312 41.8961 84.1776 41.872 84.1288 41.8287C84.0801 41.7805 84.0605 41.7275 84.0605 41.66V40.947C84.0605 40.8796 84.0849 40.8266 84.1288 40.7784C84.1776 40.7302 84.2312 40.7109 84.2995 40.7109H85.2115C85.2847 40.7109 85.3432 40.735 85.392 40.7784C85.4408 40.8266 85.4603 40.8796 85.4603 40.947V41.66C85.4603 41.7275 85.4359 41.7805 85.392 41.8287C85.3432 41.8768 85.2847 41.8961 85.2115 41.8961H84.2995Z" fill="white"/>
<path d="M87.1867 47.8989C87.1184 47.8989 87.0648 47.8749 87.016 47.8315C86.9672 47.7833 86.9478 47.7303 86.9478 47.6629V42.9896C86.9478 42.9221 86.9721 42.8691 87.016 42.821C87.0648 42.7728 87.1184 42.7535 87.1867 42.7535H88.0061C88.0743 42.7535 88.128 42.7776 88.1767 42.821C88.2255 42.8691 88.245 42.9221 88.245 42.9896V43.3943C88.4206 43.1823 88.6401 43.004 88.9132 42.8643C89.1863 42.7246 89.5179 42.6523 89.9227 42.6523C90.3275 42.6523 90.6835 42.7439 90.9859 42.927C91.2883 43.11 91.5175 43.3654 91.6833 43.693C91.8491 44.0206 91.9272 44.4205 91.9272 44.883V47.6677C91.9272 47.7352 91.9028 47.7881 91.8589 47.8363C91.8101 47.8845 91.7565 47.9038 91.6882 47.9038H90.8055C90.7372 47.9038 90.6836 47.8797 90.6348 47.8363C90.586 47.7881 90.5665 47.7352 90.5665 47.6677V44.9456C90.5665 44.565 90.4689 44.2615 90.2787 44.0447C90.0885 43.8279 89.8105 43.7171 89.4496 43.7171C89.0887 43.7171 88.8254 43.8279 88.6157 44.0447C88.4109 44.2615 88.3036 44.5602 88.3036 44.9456V47.6677C88.3036 47.7352 88.2792 47.7881 88.2353 47.8363C88.1865 47.8845 88.1329 47.9038 88.0646 47.9038H87.1818L87.1867 47.8989Z" fill="white"/>
<path d="M95.0828 47.8984C94.9755 47.8984 94.8974 47.8743 94.8487 47.8261C94.7999 47.7779 94.756 47.7201 94.7218 47.6527L92.8491 43.0565C92.8345 43.0227 92.8296 42.9938 92.8296 42.9697C92.8296 42.9119 92.8539 42.8589 92.893 42.8156C92.9369 42.7722 92.9905 42.7529 93.049 42.7529H93.8586C93.9415 42.7529 94.0001 42.7722 94.0391 42.8156C94.0781 42.8589 94.1073 42.8975 94.1171 42.9408L95.4486 46.4145L96.78 42.9408C96.7946 42.9023 96.819 42.8589 96.858 42.8156C96.897 42.7722 96.9604 42.7529 97.0384 42.7529H97.8578C97.9115 42.7529 97.9602 42.7722 98.0041 42.8156C98.048 42.8589 98.0675 42.9071 98.0675 42.9697C98.0675 42.9938 98.0675 43.0275 98.0577 43.0565L96.1752 47.6527C96.1508 47.7201 96.1069 47.7779 96.0533 47.8261C95.9997 47.8743 95.9167 47.8984 95.8143 47.8984H95.073H95.0828Z" fill="white"/>
<path d="M100.145 44.878H102.359V44.8491C102.359 44.589 102.315 44.3674 102.227 44.1698C102.14 43.9771 102.013 43.8229 101.847 43.7121C101.681 43.6013 101.481 43.5483 101.247 43.5483C101.013 43.5483 100.813 43.6013 100.647 43.7121C100.481 43.8229 100.355 43.9723 100.272 44.1698C100.189 44.3625 100.145 44.589 100.145 44.8491V44.878ZM101.247 47.9952C100.506 47.9952 99.9156 47.7832 99.4816 47.3592C99.0475 46.9353 98.8134 46.3379 98.7793 45.5574C98.7744 45.4899 98.7695 45.408 98.7695 45.302C98.7695 45.196 98.7695 45.1189 98.7793 45.0611C98.8037 44.5601 98.9207 44.1265 99.1255 43.7699C99.3304 43.4086 99.6132 43.134 99.9741 42.9365C100.335 42.7438 100.759 42.6426 101.247 42.6426C101.788 42.6426 102.242 42.7534 102.608 42.975C102.974 43.1966 103.251 43.505 103.442 43.8952C103.627 44.2903 103.725 44.7432 103.725 45.2587V45.4658C103.725 45.5333 103.7 45.5863 103.656 45.6345C103.608 45.6826 103.549 45.7019 103.476 45.7019H100.15V45.779C100.155 46.0102 100.203 46.2222 100.286 46.4198C100.369 46.6125 100.491 46.7714 100.657 46.8919C100.823 47.0123 101.018 47.0702 101.242 47.0702C101.428 47.0702 101.588 47.0412 101.715 46.9834C101.842 46.9256 101.944 46.863 102.027 46.7907C102.105 46.7185 102.164 46.6606 102.198 46.6125C102.257 46.5354 102.305 46.4872 102.344 46.4679C102.383 46.4535 102.437 46.4438 102.51 46.4438H103.373C103.442 46.4438 103.495 46.4631 103.539 46.5017C103.583 46.5402 103.603 46.5884 103.593 46.651C103.588 46.757 103.53 46.8871 103.427 47.0364C103.325 47.1906 103.173 47.3351 102.983 47.4845C102.788 47.629 102.549 47.7495 102.257 47.8458C101.964 47.9422 101.632 47.9904 101.262 47.9904" fill="white"/>
<path d="M106.963 47.9953C106.563 47.9953 106.217 47.9471 105.934 47.8556C105.651 47.764 105.417 47.6484 105.236 47.5087C105.056 47.369 104.924 47.2341 104.837 47.0944C104.749 46.9547 104.705 46.839 104.695 46.7475C104.69 46.6752 104.71 46.6174 104.758 46.574C104.807 46.5307 104.866 46.5114 104.924 46.5114H105.714C105.739 46.5114 105.763 46.5114 105.783 46.5211C105.802 46.5259 105.827 46.5451 105.861 46.5789C105.948 46.6511 106.041 46.7282 106.139 46.8053C106.236 46.8824 106.348 46.9547 106.485 47.0077C106.617 47.0655 106.787 47.0944 106.987 47.0944C107.246 47.0944 107.465 47.0414 107.646 46.9402C107.821 46.839 107.909 46.6897 107.909 46.5018C107.909 46.3621 107.87 46.2513 107.792 46.1645C107.714 46.0778 107.573 46.0007 107.368 45.9333C107.163 45.8658 106.865 45.7888 106.485 45.7117C106.109 45.6249 105.802 45.5189 105.553 45.384C105.305 45.254 105.124 45.0853 105.002 44.8878C104.88 44.6903 104.822 44.459 104.822 44.194C104.822 43.9291 104.9 43.693 105.056 43.4569C105.212 43.2208 105.446 43.0281 105.758 42.8788C106.07 42.7294 106.456 42.6523 106.914 42.6523C107.275 42.6523 107.587 42.6957 107.855 42.7872C108.124 42.874 108.343 42.9848 108.524 43.1197C108.704 43.2546 108.836 43.3847 108.928 43.5196C109.021 43.6545 109.07 43.7701 109.08 43.8713C109.084 43.9435 109.065 44.0013 109.021 44.0447C108.972 44.0881 108.919 44.1073 108.86 44.1073H108.119C108.085 44.1073 108.055 44.1025 108.031 44.0881C108.007 44.0736 107.977 44.0592 107.953 44.0399C107.88 43.9724 107.797 43.9002 107.714 43.8279C107.626 43.7508 107.524 43.6882 107.397 43.6352C107.275 43.5822 107.109 43.5581 106.909 43.5581C106.656 43.5581 106.461 43.6111 106.329 43.7219C106.197 43.8327 106.129 43.9676 106.129 44.1314C106.129 44.2422 106.163 44.3386 106.226 44.4253C106.29 44.5072 106.417 44.5843 106.612 44.6566C106.807 44.7288 107.099 44.8059 107.494 44.883C107.943 44.9601 108.299 45.0805 108.563 45.2347C108.826 45.3889 109.011 45.5671 109.123 45.7695C109.236 45.9718 109.289 46.1934 109.289 46.4391C109.289 46.7379 109.201 47.0028 109.026 47.2389C108.85 47.475 108.587 47.6629 108.246 47.7978C107.899 47.9327 107.475 48.0001 106.968 48.0001" fill="white"/>
<path d="M112.855 47.8984C112.455 47.8984 112.118 47.831 111.84 47.6912C111.567 47.5515 111.362 47.3492 111.23 47.0746C111.099 46.7999 111.031 46.4579 111.031 46.0484V43.7984H110.24C110.172 43.7984 110.119 43.7744 110.07 43.731C110.021 43.6828 110.001 43.625 110.001 43.5527V42.989C110.001 42.9216 110.026 42.8686 110.07 42.8204C110.119 42.7723 110.172 42.753 110.24 42.753H111.031V41.1101C111.031 41.0426 111.05 40.9897 111.094 40.9415C111.138 40.8933 111.196 40.874 111.27 40.874H112.079C112.147 40.874 112.201 40.8981 112.25 40.9415C112.299 40.9897 112.318 41.0426 112.318 41.1101V42.753H113.571C113.64 42.753 113.693 42.7771 113.742 42.8204C113.791 42.8686 113.81 42.9216 113.81 42.989V43.5527C113.81 43.625 113.786 43.6828 113.742 43.731C113.698 43.7792 113.64 43.7984 113.571 43.7984H112.318V45.9472C112.318 46.217 112.367 46.429 112.464 46.5831C112.562 46.7373 112.728 46.8096 112.972 46.8096H113.664C113.732 46.8096 113.786 46.8337 113.835 46.877C113.884 46.9252 113.903 46.9782 113.903 47.0457V47.6623C113.903 47.7298 113.879 47.7828 113.835 47.831C113.786 47.8791 113.732 47.8984 113.664 47.8984H112.85H112.855Z" fill="white"/>
<path d="M120.341 47.9956C119.726 47.9956 119.204 47.8896 118.77 47.6776C118.341 47.4657 118.005 47.1621 117.766 46.7623C117.527 46.3624 117.4 45.8854 117.38 45.3314C117.375 45.0471 117.371 44.7436 117.371 44.416C117.371 44.0884 117.371 43.78 117.38 43.491C117.4 42.9417 117.527 42.4744 117.766 42.0841C118.005 41.6939 118.341 41.3952 118.78 41.1832C119.219 40.9712 119.736 40.8652 120.341 40.8652C120.828 40.8652 121.258 40.9279 121.623 41.058C121.989 41.188 122.296 41.3518 122.54 41.5542C122.784 41.7565 122.969 41.9733 123.091 42.2046C123.213 42.4358 123.282 42.6478 123.286 42.8502C123.291 42.908 123.277 42.961 123.238 42.9995C123.199 43.0381 123.145 43.0573 123.077 43.0573H122.043C121.974 43.0573 121.926 43.0429 121.892 43.0188C121.857 42.9947 121.828 42.9514 121.799 42.8984C121.745 42.7586 121.662 42.6237 121.55 42.4888C121.438 42.3539 121.282 42.2383 121.087 42.1468C120.892 42.0552 120.643 42.0071 120.336 42.0071C119.882 42.0071 119.516 42.1275 119.248 42.3636C118.975 42.5997 118.834 42.9947 118.814 43.5391C118.795 44.1124 118.795 44.6954 118.814 45.2832C118.834 45.842 118.985 46.2467 119.263 46.4925C119.541 46.7382 119.907 46.8586 120.36 46.8586C120.663 46.8586 120.931 46.8056 121.165 46.6996C121.404 46.5936 121.589 46.4298 121.726 46.2034C121.862 45.9769 121.931 45.6927 121.931 45.341V45.0327H120.706C120.638 45.0327 120.585 45.0086 120.536 44.9652C120.487 44.917 120.468 44.8592 120.468 44.7869V44.2618C120.468 44.1895 120.492 44.1317 120.536 44.0835C120.585 44.0354 120.638 44.0161 120.706 44.0161H123.101C123.174 44.0161 123.233 44.0402 123.277 44.0835C123.321 44.1317 123.34 44.1895 123.34 44.2618V45.3025C123.34 45.8565 123.218 46.3335 122.974 46.7382C122.73 47.1429 122.384 47.4512 121.931 47.668C121.482 47.8848 120.945 47.9956 120.331 47.9956" fill="white"/>
<path d="M126.223 44.1649H127.637C128.046 44.1649 128.349 44.0734 128.549 43.8903C128.749 43.7072 128.851 43.4519 128.851 43.1243C128.851 42.7967 128.754 42.5365 128.554 42.3486C128.359 42.1607 128.051 42.0644 127.637 42.0644H126.223V44.1649ZM125.071 47.8987C125.003 47.8987 124.95 47.8746 124.901 47.8313C124.852 47.7831 124.833 47.7301 124.833 47.6627V41.2164C124.833 41.1441 124.857 41.0863 124.901 41.0382C124.95 40.99 125.003 40.9707 125.071 40.9707H127.666C128.476 40.9707 129.115 41.1538 129.583 41.5248C130.051 41.8957 130.285 42.4353 130.285 43.1387C130.285 43.6253 130.163 44.0348 129.919 44.3576C129.675 44.6804 129.349 44.9165 128.944 45.061L130.407 47.5856C130.426 47.6241 130.436 47.6627 130.436 47.6964C130.436 47.7542 130.412 47.8072 130.373 47.8457C130.329 47.8843 130.28 47.9036 130.227 47.9036H129.315C129.202 47.9036 129.115 47.8746 129.056 47.812C128.998 47.7542 128.949 47.6916 128.915 47.6338L127.622 45.2875H126.227V47.6627C126.227 47.7301 126.208 47.7831 126.164 47.8313C126.12 47.8795 126.062 47.8987 125.988 47.8987H125.076H125.071Z" fill="white"/>
<path d="M134.572 47.995C133.991 47.995 133.484 47.8987 133.06 47.7011C132.631 47.5084 132.304 47.2049 132.07 46.8002C131.836 46.3955 131.719 45.8752 131.719 45.2392V41.2115C131.719 41.1393 131.743 41.0814 131.787 41.0333C131.836 40.9851 131.889 40.9658 131.958 40.9658H132.87C132.943 40.9658 133.001 40.9899 133.045 41.0333C133.089 41.0814 133.109 41.1393 133.109 41.2115V45.2392C133.109 45.7788 133.24 46.1835 133.499 46.4437C133.757 46.7038 134.118 46.8339 134.572 46.8339C135.025 46.8339 135.381 46.7038 135.64 46.4437C135.898 46.1835 136.025 45.7836 136.025 45.2392V41.2115C136.025 41.1393 136.05 41.0814 136.093 41.0333C136.137 40.9851 136.201 40.9658 136.274 40.9658H137.176C137.249 40.9658 137.308 40.9899 137.352 41.0333C137.396 41.0814 137.415 41.1393 137.415 41.2115V45.2392C137.415 45.8752 137.298 46.3907 137.069 46.8002C136.84 47.2049 136.508 47.5084 136.089 47.7011C135.664 47.8939 135.157 47.995 134.572 47.995Z" fill="white"/>
<path d="M140.536 44.242H142C142.385 44.242 142.682 44.1505 142.892 43.9674C143.097 43.7843 143.204 43.5193 143.204 43.158C143.204 42.8304 143.107 42.5606 142.912 42.3631C142.716 42.1655 142.414 42.0595 142 42.0595H140.536V44.2372V44.242ZM139.366 47.8987C139.298 47.8987 139.244 47.8746 139.195 47.8313C139.146 47.7831 139.127 47.7301 139.127 47.6627V41.2164C139.127 41.1441 139.151 41.0863 139.195 41.0382C139.244 40.99 139.298 40.9707 139.366 40.9707H142.053C142.575 40.9707 143.029 41.0526 143.414 41.2116C143.799 41.3754 144.102 41.6163 144.316 41.9439C144.531 42.2715 144.638 42.6762 144.638 43.1676C144.638 43.659 144.531 44.0686 144.316 44.3914C144.102 44.7093 143.799 44.9502 143.414 45.1092C143.029 45.2682 142.57 45.3453 142.053 45.3453H140.561V47.6627C140.561 47.7301 140.536 47.7831 140.497 47.8313C140.453 47.8795 140.395 47.8987 140.322 47.8987H139.371H139.366Z" fill="white"/>
<path d="M147.042 45.3597H149.32L148.179 42.3004L147.047 45.3597H147.042ZM145.057 47.8987C145.004 47.8987 144.955 47.8795 144.911 47.8409C144.867 47.8024 144.848 47.7494 144.848 47.6916C144.848 47.6675 144.853 47.6338 144.867 47.6048L147.281 41.2164C147.301 41.149 147.34 41.0912 147.398 41.043C147.457 40.9948 147.535 40.9707 147.632 40.9707H148.725C148.827 40.9707 148.9 40.9948 148.954 41.043C149.008 41.0912 149.047 41.149 149.076 41.2164L151.49 47.6048C151.495 47.6386 151.5 47.6675 151.5 47.6916C151.5 47.7494 151.48 47.8024 151.441 47.8409C151.402 47.8795 151.354 47.8987 151.3 47.8987H150.427C150.334 47.8987 150.266 47.8795 150.222 47.8361C150.178 47.7927 150.149 47.7494 150.139 47.7108L149.666 46.5016H146.691L146.218 47.7108C146.203 47.7494 146.174 47.7927 146.13 47.8361C146.086 47.8795 146.018 47.8987 145.925 47.8987H145.053H145.057Z" fill="white"/>
<path d="M20.069 0L0 17.4453V47.8988H20.069V41.2887H6.69127V19.5604L13.3826 13.7453V38.6438H20.0738V0H20.069ZM19.0789 2.1632V37.6706H14.3677V11.5869L12.7242 13.0178L6.03288 18.8329L5.69637 19.1268V42.2716H19.0741V46.9256H0.985169V17.8934L19.0741 2.16802L19.0789 2.1632Z" fill="white"/>
<path d="M52.1795 36.1579V47.8941H45.4883V30.3428L52.1795 36.1579Z" fill="white"/>
<path d="M52.1795 25.5876V33.5177L45.4883 27.7026V19.7725L52.1795 25.5876Z" fill="white"/>
<path d="M42.8102 17.4453V47.894H22.7412V41.2888H36.1238V19.5604L29.4325 13.7453V38.6438H22.7412V0L42.8102 17.4453Z" fill="white"/>
<path d="M102.598 32.6501C103.637 32.6501 104.446 32.4284 105.037 31.9852C105.627 31.542 106.051 30.959 106.31 30.2412C106.568 29.5233 106.719 28.7476 106.758 27.919C106.778 27.3456 106.778 26.7771 106.758 26.2038C106.719 25.3752 106.568 24.6043 106.31 23.8816C106.051 23.1638 105.627 22.5808 105.037 22.1376C104.446 21.6943 103.637 21.4727 102.598 21.4727C101.623 21.4727 100.828 21.6992 100.218 22.152C99.6085 22.6049 99.1598 23.183 98.872 23.8816C98.5843 24.5802 98.4185 25.2933 98.3795 26.0256C98.3599 26.3387 98.3502 26.7145 98.3502 27.1481C98.3502 27.5817 98.3599 27.9671 98.3795 28.2996C98.399 28.9885 98.5648 29.6678 98.872 30.3375C99.1793 31.0072 99.6426 31.5612 100.262 31.9948C100.881 32.4284 101.657 32.6452 102.593 32.6452M96.258 39.5396C96.058 39.5396 95.8922 39.4769 95.7654 39.3468C95.6337 39.2168 95.5703 39.0578 95.5703 38.8602V20.0611C95.5703 19.8636 95.6337 19.6998 95.7654 19.5745C95.8971 19.4492 96.058 19.3818 96.258 19.3818H97.6333C97.8332 19.3818 97.9991 19.4444 98.1259 19.5745C98.2576 19.7046 98.3209 19.8636 98.3209 20.0611V21.3619C98.7989 20.7115 99.4378 20.1719 100.238 19.7383C101.037 19.3047 102.032 19.0879 103.232 19.0879C104.349 19.0879 105.3 19.2758 106.09 19.6516C106.875 20.0274 107.524 20.5381 108.036 21.1885C108.543 21.8389 108.928 22.576 109.187 23.4047C109.445 24.2333 109.597 25.1198 109.636 26.0641C109.655 26.3773 109.665 26.7145 109.665 27.071C109.665 27.4275 109.655 27.76 109.636 28.078C109.597 29.003 109.445 29.8846 109.187 30.7229C108.928 31.5612 108.543 32.2984 108.036 32.9391C107.529 33.5799 106.88 34.0906 106.09 34.476C105.3 34.8614 104.349 35.0542 103.232 35.0542C102.115 35.0542 101.101 34.8422 100.316 34.4182C99.5256 33.9942 98.8818 33.4691 98.3843 32.838V38.8699C98.3843 39.0674 98.3258 39.2312 98.2039 39.3565C98.0868 39.4866 97.9259 39.5492 97.726 39.5492H96.258V39.5396Z" fill="white"/>
<path d="M113.342 34.7463C113.142 34.7463 112.976 34.6837 112.849 34.5536C112.718 34.4235 112.654 34.2645 112.654 34.067V14.7379C112.654 14.5404 112.718 14.3766 112.849 14.2513C112.981 14.1212 113.142 14.0586 113.342 14.0586H114.747C114.966 14.0586 115.137 14.1212 115.254 14.2513C115.371 14.3814 115.434 14.5404 115.434 14.7379V34.067C115.434 34.2645 115.376 34.4284 115.254 34.5536C115.132 34.6837 114.966 34.7463 114.747 34.7463H113.342Z" fill="white"/>
<path d="M124.11 32.8292C124.93 32.8292 125.676 32.6557 126.354 32.3137C127.032 31.9668 127.563 31.432 127.954 30.7045C128.344 29.977 128.539 29.0616 128.539 27.9584V27.1297L125.066 27.6307C123.652 27.8283 122.584 28.1607 121.867 28.6184C121.15 29.0809 120.789 29.6687 120.789 30.3769C120.789 30.931 120.955 31.3886 121.282 31.75C121.613 32.1161 122.028 32.3859 122.54 32.5642C123.047 32.7425 123.574 32.8292 124.11 32.8292ZM123.486 35.0454C122.486 35.0454 121.579 34.8478 120.765 34.4528C119.945 34.0577 119.287 33.5278 118.79 32.8581C118.292 32.1884 118.043 31.432 118.043 30.5841C118.043 29.2254 118.604 28.1414 119.721 27.332C120.838 26.5226 122.296 25.9927 124.091 25.7373L128.549 25.1158V24.2583C128.549 23.314 128.275 22.572 127.724 22.0421C127.178 21.5073 126.281 21.2423 125.047 21.2423C124.169 21.2423 123.452 21.4206 122.891 21.7723C122.33 22.1288 121.945 22.5817 121.726 23.1309C121.604 23.4248 121.394 23.5741 121.096 23.5741H119.75C119.531 23.5741 119.365 23.5115 119.258 23.3814C119.151 23.2513 119.092 23.102 119.092 22.9237C119.092 22.6298 119.204 22.2637 119.438 21.8301C119.668 21.3965 120.023 20.9725 120.501 20.5582C120.979 20.1438 121.594 19.797 122.34 19.5079C123.086 19.2236 124.003 19.0791 125.076 19.0791C126.271 19.0791 127.281 19.2333 128.1 19.5368C128.919 19.8403 129.563 20.2498 130.031 20.7653C130.499 21.276 130.841 21.859 131.046 22.5094C131.255 23.1598 131.358 23.8198 131.358 24.4895V34.0674C131.358 34.2649 131.294 34.4287 131.163 34.554C131.031 34.684 130.87 34.7467 130.67 34.7467H129.295C129.075 34.7467 128.905 34.684 128.788 34.554C128.67 34.4239 128.607 34.2649 128.607 34.0674V32.7954C128.349 33.152 127.997 33.4989 127.559 33.8457C127.12 34.1926 126.569 34.4769 125.91 34.7033C125.252 34.9297 124.442 35.0454 123.486 35.0454Z" fill="white"/>
<path d="M135.601 34.7458C135.401 34.7458 135.235 34.6831 135.108 34.553C134.976 34.423 134.913 34.264 134.913 34.0664V20.0562C134.913 19.8587 134.976 19.6949 135.108 19.5696C135.24 19.4395 135.401 19.3769 135.601 19.3769H137.005C137.205 19.3769 137.366 19.4395 137.498 19.5696C137.63 19.6997 137.693 19.8587 137.693 20.0562V21.357C138.21 20.6873 138.863 20.1429 139.654 19.719C140.439 19.295 141.453 19.083 142.692 19.083C143.931 19.083 145.091 19.3624 145.999 19.9261C146.906 20.4898 147.593 21.2655 148.062 22.2628C148.53 23.2601 148.764 24.4163 148.764 25.7364V34.0713C148.764 34.2688 148.7 34.4326 148.569 34.5579C148.437 34.6879 148.276 34.7506 148.076 34.7506H146.579C146.379 34.7506 146.213 34.6879 146.086 34.5579C145.955 34.4278 145.891 34.2688 145.891 34.0713V25.8858C145.891 24.5079 145.55 23.4287 144.877 22.6482C144.199 21.8677 143.199 21.4823 141.882 21.4823C140.644 21.4823 139.654 21.8725 138.907 22.6482C138.161 23.4287 137.786 24.5031 137.786 25.8858V34.0713C137.786 34.2688 137.722 34.4326 137.591 34.5579C137.459 34.6879 137.298 34.7506 137.098 34.7506H135.601V34.7458Z" fill="white"/>
<path d="M73.9696 25.0529C73.9598 25.5106 73.9354 26.0213 73.8915 26.5946C73.872 27.5244 73.716 28.2712 73.4282 28.8397C73.1356 29.413 72.7064 29.8322 72.1407 30.0971C71.5701 30.3621 70.858 30.497 69.9997 30.497H66.8589V18.3176H69.8533C71.1701 18.3176 72.1602 18.6259 72.8283 19.2474C73.4965 19.8689 73.8525 20.8517 73.8915 22.1863C73.9354 22.7403 73.9549 23.2414 73.9696 23.6942C73.9793 24.1519 73.9793 24.6 73.9696 25.0529ZM79.3635 22.1284C79.305 20.3748 78.9051 18.9005 78.1687 17.7057C77.4274 16.5157 76.3739 15.6099 74.9986 14.9884C73.6233 14.3669 71.9554 14.0586 69.9997 14.0586H61.4746V34.7463H70.1557C72.1065 34.7463 73.7598 34.4573 75.1059 33.8743C76.452 33.2914 77.481 32.4001 78.1882 31.1956C78.8954 29.996 79.2953 28.4783 79.3684 26.6476C79.3879 25.8045 79.3977 25.0481 79.3977 24.4025C79.3977 23.7569 79.3879 22.9908 79.3684 22.1284" fill="white"/>
<path d="M87.3523 14.0586H81.8169V34.7512H87.3523V14.0586Z" fill="white"/>
</svg>
