<svg width="124" height="28" viewBox="0 0 124 28" fill="none" xmlns="http://www.w3.org/2000/svg">
<path d="M38.598 22V7.45455H47.7173V9.34375H40.7926V13.7756H47.2415V15.6577H40.7926V20.1108H47.8026V22H38.598ZM51.2019 7.45455V22H49.0783V7.45455H51.2019ZM52.6588 22V11.0909H54.7824V22H52.6588ZM53.7312 9.40767C53.3619 9.40767 53.0447 9.28456 52.7795 9.03835C52.5191 8.7874 52.3889 8.48911 52.3889 8.14347C52.3889 7.79309 52.5191 7.49479 52.7795 7.24858C53.0447 6.99763 53.3619 6.87216 53.7312 6.87216C54.1006 6.87216 54.4154 6.99763 54.6759 7.24858C54.941 7.49479 55.0736 7.79309 55.0736 8.14347C55.0736 8.48911 54.941 8.7874 54.6759 9.03835C54.4154 9.28456 54.1006 9.40767 53.7312 9.40767ZM61.3316 11.0909V12.7955H55.3728V11.0909H61.3316ZM56.9708 8.47727H59.0944V18.7969C59.0944 19.2088 59.1559 19.5189 59.279 19.7273C59.4022 19.9309 59.5608 20.0705 59.7549 20.1463C59.9538 20.2173 60.1692 20.2528 60.4012 20.2528C60.5717 20.2528 60.7208 20.241 60.8486 20.2173C60.9765 20.1937 61.0759 20.1747 61.1469 20.1605L61.5305 21.9148C61.4074 21.9621 61.2322 22.0095 61.0049 22.0568C60.7776 22.1089 60.4935 22.1373 60.1526 22.142C59.5939 22.1515 59.0731 22.0521 58.5901 21.8438C58.1072 21.6354 57.7165 21.3134 57.4183 20.8778C57.12 20.4422 56.9708 19.8954 56.9708 19.2372V8.47727ZM66.3441 22V7.45455H71.5288C72.6604 7.45455 73.5979 7.66051 74.3413 8.07244C75.0846 8.48437 75.641 9.04782 76.0103 9.76278C76.3796 10.473 76.5643 11.2732 76.5643 12.1634C76.5643 13.0582 76.3772 13.8632 76.0032 14.5781C75.6339 15.2884 75.0752 15.8518 74.3271 16.2685C73.5837 16.6804 72.6486 16.8864 71.5217 16.8864H67.9563V15.0256H71.3228C72.0378 15.0256 72.6178 14.9025 73.0629 14.6562C73.5079 14.4053 73.8346 14.0644 74.043 13.6335C74.2513 13.2027 74.3555 12.7126 74.3555 12.1634C74.3555 11.6141 74.2513 11.1264 74.043 10.7003C73.8346 10.2741 73.5056 9.94034 73.0558 9.69886C72.6107 9.45739 72.0236 9.33665 71.2944 9.33665H68.5387V22H66.3441ZM77.5666 22V11.0909H79.6192V12.8239H79.7328C79.9317 12.2367 80.2821 11.7751 80.7839 11.4389C81.2906 11.098 81.8635 10.9276 82.5027 10.9276C82.6353 10.9276 82.7915 10.9323 82.9714 10.9418C83.1561 10.9512 83.3005 10.9631 83.4047 10.9773V13.0085C83.3195 12.9848 83.1679 12.9588 82.9501 12.9304C82.7323 12.8973 82.5145 12.8807 82.2967 12.8807C81.7948 12.8807 81.3474 12.9872 80.9544 13.2003C80.5661 13.4086 80.2584 13.6998 80.0311 14.0739C79.8038 14.4432 79.6902 14.8646 79.6902 15.3381V22H77.5666ZM88.0469 22.2202C87.0242 22.2202 86.1317 21.9858 85.3694 21.517C84.6071 21.0483 84.0152 20.3925 83.5938 19.5497C83.1724 18.7069 82.9617 17.7221 82.9617 16.5952C82.9617 15.4635 83.1724 14.474 83.5938 13.6264C84.0152 12.7789 84.6071 12.1207 85.3694 11.652C86.1317 11.1832 87.0242 10.9489 88.0469 10.9489C89.0697 10.9489 89.9622 11.1832 90.7245 11.652C91.4868 12.1207 92.0787 12.7789 92.5001 13.6264C92.9215 14.474 93.1322 15.4635 93.1322 16.5952C93.1322 17.7221 92.9215 18.7069 92.5001 19.5497C92.0787 20.3925 91.4868 21.0483 90.7245 21.517C89.9622 21.9858 89.0697 22.2202 88.0469 22.2202ZM88.054 20.4375C88.7169 20.4375 89.2662 20.2623 89.7018 19.9119C90.1374 19.5616 90.4594 19.0952 90.6677 18.5128C90.8808 17.9304 90.9873 17.2888 90.9873 16.5881C90.9873 15.892 90.8808 15.2528 90.6677 14.6705C90.4594 14.0833 90.1374 13.6122 89.7018 13.2571C89.2662 12.902 88.7169 12.7244 88.054 12.7244C87.3864 12.7244 86.8325 12.902 86.3921 13.2571C85.9565 13.6122 85.6322 14.0833 85.4191 14.6705C85.2108 15.2528 85.1066 15.892 85.1066 16.5881C85.1066 17.2888 85.2108 17.9304 85.4191 18.5128C85.6322 19.0952 85.9565 19.5616 86.3921 19.9119C86.8325 20.2623 87.3864 20.4375 88.054 20.4375ZM94.1026 11.0909H96.2261V22.7102C96.2261 23.4394 96.0936 24.0549 95.8284 24.5568C95.568 25.0587 95.1797 25.4399 94.6636 25.7003C94.1523 25.9607 93.5202 26.0909 92.7673 26.0909C92.6916 26.0909 92.6205 26.0909 92.5543 26.0909C92.4832 26.0909 92.4098 26.0885 92.3341 26.0838V24.2585C92.4004 24.2585 92.4596 24.2585 92.5116 24.2585C92.559 24.2585 92.6134 24.2585 92.675 24.2585C93.1769 24.2585 93.5391 24.1236 93.7616 23.8537C93.9889 23.5885 94.1026 23.2027 94.1026 22.696V11.0909ZM95.1537 9.40767C94.7844 9.40767 94.4671 9.28456 94.202 9.03835C93.9416 8.7874 93.8114 8.48911 93.8114 8.14347C93.8114 7.79309 93.9416 7.49479 94.202 7.24858C94.4671 6.99763 94.7844 6.87216 95.1537 6.87216C95.523 6.87216 95.8379 6.99763 96.0983 7.24858C96.3634 7.49479 96.496 7.79309 96.496 8.14347C96.496 8.48911 96.3634 8.7874 96.0983 9.03835C95.8379 9.28456 95.523 9.40767 95.1537 9.40767ZM102.385 22.2202C101.31 22.2202 100.384 21.9905 99.6077 21.5312C98.836 21.0672 98.2394 20.4162 97.818 19.5781C97.4013 18.7353 97.193 17.7481 97.193 16.6165C97.193 15.4991 97.4013 14.5142 97.818 13.6619C98.2394 12.8097 98.8265 12.1444 99.5793 11.6662C100.337 11.188 101.222 10.9489 102.236 10.9489C102.851 10.9489 103.448 11.0507 104.025 11.2543C104.603 11.4579 105.121 11.7775 105.581 12.2131C106.04 12.6487 106.402 13.2145 106.667 13.9105C106.933 14.6018 107.065 15.4422 107.065 16.4318V17.1847H98.3933V15.5938H104.984C104.984 15.035 104.871 14.5402 104.643 14.1094C104.416 13.6738 104.096 13.3305 103.684 13.0795C103.277 12.8286 102.799 12.7031 102.25 12.7031C101.653 12.7031 101.132 12.8499 100.687 13.1435C100.247 13.4323 99.906 13.8111 99.6646 14.2798C99.4278 14.7438 99.3094 15.2481 99.3094 15.7926V17.0355C99.3094 17.7647 99.4373 18.3849 99.693 18.8963C99.9534 19.4077 100.316 19.7983 100.78 20.0682C101.244 20.3333 101.786 20.4659 102.406 20.4659C102.809 20.4659 103.175 20.4091 103.507 20.2955C103.838 20.1771 104.125 20.0019 104.366 19.7699C104.608 19.5379 104.792 19.2514 104.92 18.9105L106.93 19.2727C106.769 19.8646 106.48 20.383 106.064 20.8281C105.652 21.2685 105.133 21.6117 104.508 21.858C103.888 22.0994 103.18 22.2202 102.385 22.2202ZM109.974 18.2997L109.96 15.7074H110.33L114.676 11.0909H117.219L112.261 16.3466H111.928L109.974 18.2997ZM108.021 22V7.45455H110.145V22H108.021ZM114.911 22L111.004 16.8153L112.467 15.331L117.517 22H114.911ZM122.846 11.0909V12.7955H116.888V11.0909H122.846ZM118.486 8.47727H120.609V18.7969C120.609 19.2088 120.671 19.5189 120.794 19.7273C120.917 19.9309 121.076 20.0705 121.27 20.1463C121.469 20.2173 121.684 20.2528 121.916 20.2528C122.087 20.2528 122.236 20.241 122.363 20.2173C122.491 20.1937 122.591 20.1747 122.662 20.1605L123.045 21.9148C122.922 21.9621 122.747 22.0095 122.52 22.0568C122.292 22.1089 122.008 22.1373 121.667 22.142C121.109 22.1515 120.588 22.0521 120.105 21.8438C119.622 21.6354 119.231 21.3134 118.933 20.8778C118.635 20.4422 118.486 19.8954 118.486 19.2372V8.47727Z" fill="#222222"/>
<path fill-rule="evenodd" clip-rule="evenodd" d="M18.9861 2.29876V20.5186L25.8824 22.9025V1.02167L28.4366 2.29876V1.27709L25.8824 0L18.9861 2.29876ZM9.45044 22.9023V8.59904L6.89629 7.32196V27.5L0 25.1161V8.59905L6.89629 6.30029L9.45044 7.57737V5.36359L16.3467 3.06483L18.986 4.34192V5.44873L16.3467 4.0865V25.1159L9.45044 22.9023Z" fill="#222222"/>
</svg>
