<svg width="500" height="500" viewBox="0 0 500 500" fill="none" xmlns="http://www.w3.org/2000/svg">
<rect width="500" height="500" rx="60" fill="#0A3264"/>
<path d="M225.789 111L121 202.09V361.101H225.789V326.587H155.938V213.133L190.876 182.77V312.776H225.815V111H225.789ZM220.62 122.295V307.695H196.02V171.5L187.439 178.972L152.5 209.335L150.743 210.869V331.719H220.594V356.02H126.144V204.429L220.594 122.32L220.62 122.295Z" fill="white"/>
<path d="M393.453 299.797V361.077H358.515V269.434L393.453 299.797Z" fill="white"/>
<path d="M393.453 244.605V286.011L358.515 255.648V214.241L393.453 244.605Z" fill="white"/>
<path d="M344.534 202.09V361.076H239.745V326.587H309.621V213.133L274.683 182.77V312.776H239.745V111L344.534 202.09Z" fill="white"/>
</svg>
