<svg width="500" height="500" viewBox="0 0 500 500" fill="none" xmlns="http://www.w3.org/2000/svg">
<rect width="500" height="500" rx="45" fill="#050505"/>
<path d="M206.24 307.396L203.55 304.806C201.294 302.641 199.504 300.068 198.283 297.235C197.061 294.402 196.433 291.365 196.433 288.297C196.433 285.23 197.061 282.193 198.283 279.36C199.504 276.527 201.294 273.954 203.55 271.789L301.583 177.339C306.063 173.039 308.617 167.222 308.699 161.132C308.781 155.042 306.385 149.163 302.023 144.753L301.808 144.537L286.661 129.954L286.545 129.833C279.097 123.494 273.506 115.386 270.329 106.317C267.152 97.2479 266.5 87.5353 268.439 78.1482L250.647 95.2699L169.67 173.22C148.388 193.713 136.389 221.48 136.294 250.46C136.198 279.44 148.013 307.28 169.159 327.903L169.67 328.404L194.941 352.718L224.175 324.639L206.24 307.396Z" fill="#BFFB00"/>
<path d="M337.67 179.532C337.979 183.454 337.306 187.391 335.708 191.012C334.111 194.633 331.634 197.832 328.487 200.34L245.734 280.017C243.46 282.208 242.182 285.179 242.182 288.276C242.182 291.373 243.46 294.344 245.734 296.535L274.932 324.648L249.554 349.083L220.06 377.472C221.414 379.078 222.642 380.675 223.754 382.264C228.185 388.145 231.284 394.855 232.852 401.961C234.42 409.068 234.422 416.412 232.856 423.519L250.657 406.388L331.617 328.43C351.903 308.899 363.793 282.72 364.913 255.12C366.033 227.519 356.311 200.527 337.67 179.532Z" fill="#BFFB00"/>
</svg>
